<?xml version="1.0" encoding="UTF-8"?>
<svg xmlns="http://www.w3.org/2000/svg" xmlns:xlink="http://www.w3.org/1999/xlink" viewBox="0 0 48 48" width="48px" height="48px">
<g id="surface4536347">
<path style=" stroke:none;fill-rule:nonzero;fill:rgb(20.392157%,28.627452%,36.862746%);fill-opacity:1;" d="M -0.699219 4.5 L 35.699219 4.5 L 35.699219 9.699219 L -0.699219 9.699219 Z M -0.699219 4.5 "/>
<path style=" stroke:none;fill-rule:nonzero;fill:rgb(20.392157%,28.627452%,36.862746%);fill-opacity:1;" d="M -0.699219 4.5 L 9.699219 4.5 L 9.699219 30.5 L -0.699219 30.5 Z M -0.699219 4.5 "/>
<path style=" stroke:none;fill-rule:nonzero;fill:rgb(20.392157%,28.627452%,36.862746%);fill-opacity:1;" d="M 25.300781 4.5 L 35.699219 4.5 L 35.699219 30.5 L 25.300781 30.5 Z M 25.300781 4.5 "/>
<path style=" stroke:none;fill-rule:nonzero;fill:rgb(58.431375%,64.705884%,65.098041%);fill-opacity:1;" d="M 25.300781 30.5 C 29.632812 26.601562 33.96875 22.699219 38.300781 18.800781 L 38.300781 30.5 C 33.96875 30.5 29.632812 30.5 25.300781 30.5 Z M 25.300781 30.5 "/>
<path style=" stroke:none;fill-rule:nonzero;fill:rgb(90.196079%,49.411765%,13.333334%);fill-opacity:1;" d="M 12.300781 39.601562 L 48.699219 39.601562 L 48.699219 44.800781 L 12.300781 44.800781 Z M 12.300781 39.601562 "/>
<path style=" stroke:none;fill-rule:nonzero;fill:rgb(90.196079%,49.411765%,13.333334%);fill-opacity:1;" d="M 12.300781 18.800781 L 22.699219 18.800781 L 22.699219 44.800781 L 12.300781 44.800781 Z M 12.300781 18.800781 "/>
<path style=" stroke:none;fill-rule:nonzero;fill:rgb(90.196079%,49.411765%,13.333334%);fill-opacity:1;" d="M 38.300781 18.800781 L 48.699219 18.800781 L 48.699219 44.800781 L 38.300781 44.800781 Z M 38.300781 18.800781 "/>
<path style=" stroke:none;fill-rule:nonzero;fill:rgb(58.431375%,64.705884%,65.098041%);fill-opacity:1;" d="M 22.699219 18.800781 C 18.367188 22.699219 14.03125 26.601562 9.699219 30.5 L 9.699219 18.800781 C 14.03125 18.800781 18.367188 18.800781 22.699219 18.800781 Z M 22.699219 18.800781 "/>
<path style=" stroke:none;fill-rule:nonzero;fill:rgb(20.392157%,28.627452%,36.862746%);fill-opacity:1;" d="M 39.601562 8.398438 L 46.101562 8.398438 L 46.101562 14.898438 L 39.601562 14.898438 Z M 39.601562 8.398438 "/>
<path style=" stroke:none;fill-rule:nonzero;fill:rgb(90.196079%,49.411765%,13.333334%);fill-opacity:1;" d="M 5.148438 33.054688 L 9.746094 37.648438 L 5.148438 42.246094 L 0.554688 37.648438 Z M 5.148438 33.054688 "/>
</g>
</svg>
