<svg xmlns="http://www.w3.org/2000/svg"  viewBox="0 0 64 64" width="512px" height="512px"><linearGradient id="fZz2kEk~jl_Fo1J88l6e2a" x1="51.5" x2="51.5" y1="13.87" y2="22.87" gradientUnits="userSpaceOnUse"><stop offset="0" stop-color="#6dc7ff"/><stop offset="1" stop-color="#e6abff"/></linearGradient><rect width="7" height="7" x="48" y="15" fill="url(#fZz2kEk~jl_Fo1J88l6e2a)"/><linearGradient id="fZz2kEk~jl_Fo1J88l6e2b" x1="10" x2="10" y1="13.739" y2="34.218" gradientUnits="userSpaceOnUse"><stop offset="0" stop-color="#6dc7ff"/><stop offset="1" stop-color="#e6abff"/></linearGradient><rect width="4" height="20" x="8" y="14" fill="url(#fZz2kEk~jl_Fo1J88l6e2b)"/><linearGradient id="fZz2kEk~jl_Fo1J88l6e2c" x1="39" x2="39" y1="13.739" y2="34.218" gradientUnits="userSpaceOnUse"><stop offset="0" stop-color="#6dc7ff"/><stop offset="1" stop-color="#e6abff"/></linearGradient><polygon fill="url(#fZz2kEk~jl_Fo1J88l6e2c)" points="41,28 37,31 37,14 41,14"/><linearGradient id="fZz2kEk~jl_Fo1J88l6e2d" x1="10" x2="10" y1="40.022" y2="50.283" gradientUnits="userSpaceOnUse"><stop offset="0" stop-color="#6dc7ff"/><stop offset="1" stop-color="#e6abff"/></linearGradient><polygon fill="url(#fZz2kEk~jl_Fo1J88l6e2d)" points="10,51 5,46 10,41 15,46"/><linearGradient id="fZz2kEk~jl_Fo1J88l6e2e" x1="24.5" x2="24.5" y1="8.717" y2="53.852" gradientUnits="userSpaceOnUse"><stop offset="0" stop-color="#1a6dff"/><stop offset="1" stop-color="#c822ff"/></linearGradient><path fill="url(#fZz2kEk~jl_Fo1J88l6e2e)" d="M44,38H34c-0.552,0-1-0.448-1-1V17H16v20c0,0.552-0.448,1-1,1H5c-0.552,0-1-0.448-1-1V11	c0-0.552,0.448-1,1-1h39c0.552,0,1,0.448,1,1v26C45,37.552,44.552,38,44,38z M35,36h8V12H6v24h8V16c0-0.552,0.448-1,1-1h19	c0.552,0,1,0.448,1,1V36z"/><linearGradient id="fZz2kEk~jl_Fo1J88l6e2f" x1="37.5" x2="37.5" y1="8.717" y2="53.852" gradientUnits="userSpaceOnUse"><stop offset="0" stop-color="#1a6dff"/><stop offset="1" stop-color="#c822ff"/></linearGradient><path fill="url(#fZz2kEk~jl_Fo1J88l6e2f)" d="M57,54H18c-0.552,0-1-0.448-1-1V27c0-0.552,0.448-1,1-1h10c0.552,0,1,0.448,1,1v20h17V27	c0-0.552,0.448-1,1-1h10c0.552,0,1,0.448,1,1v26C58,53.552,57.552,54,57,54z M19,52h37V28h-8v20c0,0.552-0.448,1-1,1H28	c-0.552,0-1-0.448-1-1V28h-8V52z"/><linearGradient id="fZz2kEk~jl_Fo1J88l6e2g" x1="21.5" x2="21.5" y1="28.348" y2="36.726" gradientUnits="userSpaceOnUse"><stop offset="0" stop-color="#6dc7ff"/><stop offset="1" stop-color="#e6abff"/></linearGradient><polygon fill="url(#fZz2kEk~jl_Fo1J88l6e2g)" points="15,37 28,26.75 15,26.75"/><linearGradient id="fZz2kEk~jl_Fo1J88l6e2h" x1="40.5" x2="40.5" y1="28.348" y2="36.726" gradientUnits="userSpaceOnUse"><stop offset="0" stop-color="#6dc7ff"/><stop offset="1" stop-color="#e6abff"/></linearGradient><polygon fill="url(#fZz2kEk~jl_Fo1J88l6e2h)" points="47,27 34,37.25 47,37.25"/><linearGradient id="fZz2kEk~jl_Fo1J88l6e2i" x1="21.5" x2="21.5" y1="8.717" y2="53.852" gradientUnits="userSpaceOnUse"><stop offset="0" stop-color="#1a6dff"/><stop offset="1" stop-color="#c822ff"/></linearGradient><path fill="url(#fZz2kEk~jl_Fo1J88l6e2i)" d="M15,38c-0.15,0-0.302-0.034-0.442-0.103C14.216,37.729,14,37.381,14,37V27	c0-0.552,0.448-1,1-1h13c0.428,0,0.809,0.272,0.947,0.678c0.138,0.405,0.002,0.854-0.337,1.114l-13,10C15.432,37.93,15.216,38,15,38	z M16,28v6.969L25.06,28H16z"/><linearGradient id="fZz2kEk~jl_Fo1J88l6e2j" x1="40.5" x2="40.5" y1="8.717" y2="53.852" gradientUnits="userSpaceOnUse"><stop offset="0" stop-color="#1a6dff"/><stop offset="1" stop-color="#c822ff"/></linearGradient><path fill="url(#fZz2kEk~jl_Fo1J88l6e2j)" d="M47,38H34c-0.428,0-0.809-0.272-0.947-0.678c-0.138-0.405-0.002-0.854,0.337-1.114l13-10	c0.302-0.233,0.709-0.274,1.052-0.104C47.784,26.271,48,26.619,48,27v10C48,37.552,47.552,38,47,38z M36.94,36H46v-6.969L36.94,36z"/></svg>